# xmcd
#
# Track frame offsets:
#	150
#	21061
#	37833
#	57448
#	70225
#	85450
#	101342
#	118138
#	135829
#	152506
#	170086
#	186652
#	202461
#	218323
#	233804
#	251589
#	265645
#	283901
#	299101
#	316786
#
# Disc length: 4416 seconds
#
# Revision: 1
# Processed by: cddbd v1.5.2PL0 Copyright (c) Steve Scherf et al.
# Submitted via: audiograbber 1.83.01
#
DISCID=2a113e14
DTITLE=Various Artist - The R&B Yearbook 2008 [CD2]
DYEAR=2008
DGENRE=R&B
TTITLE0=Chris Brown - Forever
TTITLE1=Usher - Love In This Club
TTITLE2=Dizzee Rascal Ft. Calvin Harris and Chrome - Dance Wiv Me
TTITLE3=Wiley - Wearing My Rolex
TTITLE4=Ironik - Stay With Me (Everybody's Free)
TTITLE5=Britney Spears - Piece Of Me
TTITLE6=Amerie - Take Control
TTITLE7=Ciara Ft. T-Pain - Go Girl
TTITLE8=Natasha Bedingfield Ft. Sean Kingston - Love Like This
TTITLE9=Michelle Williams - We Break The Dawn
TTITLE10=Cassie - Long Way 2 Go
TTITLE11=Lil Mama Ft. Chris Brown and T-Pain - Shawty Get Loose
TTITLE12=Tweet Ft. Missy Elliott - Oops (Oh My)
TTITLE13=Trey Songz - Can't Help But Wait
TTITLE14=Sean Kingston - Take You There
TTITLE15=R. Kelly - Ignition (Remix)
TTITLE16=Joe - Beautiful
TTITLE17=Lemar - It's Not That Easy
TTITLE18=Jay-Z - Wishing On A Star
TTITLE19=Kelly Rowland - Work (Freemasons Remix)
EXTD=
EXTT0=
EXTT1=
EXTT2=
EXTT3=
EXTT4=
EXTT5=
EXTT6=
EXTT7=
EXTT8=
EXTT9=
EXTT10=
EXTT11=
EXTT12=
EXTT13=
EXTT14=
EXTT15=
EXTT16=
EXTT17=
EXTT18=
EXTT19=
PLAYORDER=
